<svg xmlns="http://www.w3.org/2000/svg" viewBox="0 0 1024 1024"><path d="M928 416c0-160-101.44-245.44-128-256 0 0-23.68 121.92-32 160-24.32 112.32-219.84 32-64-96l-192-159.36L320 224c155.84 128-39.68 208.32-64 96-8.32-38.08-32-160-32-160-26.56 10.56-128 96-128 256 111.68-68.8 88 28.48 78.4 48.64C143.36 530.24 113.6 601.92 96 672c149.76 25.92 290.88 118.72 320 256 32 26.88 64 31.36 96 32 32.32-0.64 64.32-5.12 96-32 29.12-137.28 170.24-230.08 320-256-17.6-69.76-47.36-141.44-78.4-207.36-9.6-20.16-33.28-117.44 78.4-48.64z m-601.92 272.96C264.32 650.24 267.52 611.2 255.68 544c25.28 21.76 168.64 72.64 160 192 0 0-27.84-8.32-89.6-47.04zM512 771.52c-40.64-144.64-68.48-233.28-204.48-307.2 68.48-25.92 145.92-65.6 161.28-148.8 7.04-39.04-7.04-64.96-45.44-88.64l88.96-75.84 88.96 75.84c-38.4 23.68-52.48 49.6-45.44 88.64 15.04 83.2 92.8 122.88 161.28 148.8-136 73.92-163.84 162.56-204.48 307.2z m185.6-82.56C635.84 727.68 608 736 608 736c-8.64-119.36 134.72-170.24 160-192-11.84 67.2-8.64 106.24-70.4 144.96z"></path><path d="M447.68 479.68l64 96 64-96-64-96-64 96z"></path></svg>