<svg xmlns="http://www.w3.org/2000/svg" viewBox="0 0 1024 1024"><path d="M480 416s-10.24-229.12-60.8-279.68c-50.88-50.88-117.44-71.04-235.84 47.04-118.4 118.4-97.92 184.96-47.04 235.84C187.2 470.08 416 480 416 480L256 256l224 160zM544 608s10.56 229.44 61.44 280c50.88 50.88 117.44 71.04 235.84-47.04 118.4-118.4 97.92-184.96 47.04-235.84-50.88-50.88-280-61.12-280-61.12l160.32 224.32L544.32 608zM608 480s229.44-10.24 280-60.8c50.88-50.88 71.04-117.44-47.04-235.84-118.4-118.4-184.96-97.92-235.84-47.04-50.88 50.88-60.8 279.68-60.8 279.68l224-160L608 480zM416 544.32s-229.12 10.24-279.68 60.8c-50.88 50.88-71.04 117.44 47.04 235.84 118.4 118.4 184.96 97.92 235.84 47.04C470.08 837.12 480 608 480 608l-224 160.32 160-224z"></path></svg>