<svg xmlns="http://www.w3.org/2000/svg" viewBox="0 0 1024 1024"><path d="M512.32 352H576l-63.68-160-63.68 160h63.68z"></path><path d="M512.64 383.36m-96 0a96 96 0 1 0 192 0 96 96 0 1 0-192 0Z"></path><path d="M832.32 544.32c110.08-75.52 64-192 64-192-51.52 73.92-128 96-128 96C800 224 672.96 232.96 672.96 64 526.4 202.88 672 255.68 672 384c0 90.88-160 192-160 192s-159.36-101.12-159.36-192c0-128.32 145.6-181.12-0.96-320 0 168.64-128 160-96 384.32 0 0-76.8-22.08-128-96 0 0-45.76 116.8 64 192h-128C122.56 784.32 412.16 960 512 960s389.44-175.68 448.32-415.68h-128z m-576.64 128c70.72 0 128 57.28 128 128-70.72 0-128-57.28-128-128z m64-128.32c53.12 0 96 42.88 96 96-53.12 0-96-42.88-96-96zM512 864l-64-64 64-96 64 96-64 64z m192.32-320c0 53.12-42.88 96-96 96 0-53.12 42.88-96 96-96z m-64 256.32c0-70.72 57.28-128 128-128 0 70.72-57.28 128-128 128z"></path></svg>