<svg xmlns="http://www.w3.org/2000/svg" viewBox="0 0 1024 1024"><path d="M608.32 64h-192l-32 95.68H640L608.32 64zM800.32 704.32H224l160.32 128.32-64 96h384l-64-96 160-128.32zM661.44 223.68h-298.56l-100.8 232C236.8 513.92 224 576.64 224 640s79.36 0 79.36 0h119.04c51.52 0 77.44-62.4 40.96-98.88l-25.92-25.92c-46.4-46.08-48.32-123.84 0.32-167.36 21.12-18.88 47.68-28.16 74.24-28.16s53.12 9.28 74.24 28.16c48.96 43.52 46.72 121.28 0.32 167.36l-25.92 25.92C524.16 577.6 550.08 640 601.6 640H800c0-63.36-13.12-126.08-38.08-184.32l-100.8-232z"></path></svg>