<svg xmlns="http://www.w3.org/2000/svg" viewBox="0 0 1024 1024"><path d="M352 480v-96s-187.52 10.56-288 256C64 640 64 288 288 160c0 0 20.48 96 64 96 68.8 0 64-192 64-192s179.52 226.56-64 416zM672 480v-96s187.52 10.56 288 256c0 0 0-352-224-480 0 0-20.48 96-64 96-68.8 0-64-192-64-192s-179.52 226.56 64 416zM960 703.68a648.064 648.064 0 0 0-226.56-137.28c-75.84-26.88-159.04 15.36-181.12 92.8L512 800.32l-40.32-141.12c-22.08-77.44-104.96-119.68-181.12-92.8-81.92 29.12-159.36 74.88-226.56 137.28L512 960l448-256.32z"></path></svg>