<svg xmlns="http://www.w3.org/2000/svg" viewBox="0 0 1024 1024"><path d="M480 640.32L448 672l64 64 64-64-32-31.68h-64z"></path><path d="M917.12 436.8L960 383.68v-128l-128-128h-192l-64 64v96h-127.68v-96l-64-64h-192l-128 128v128l42.88 53.12L64 480v192l224 224h448l224-224v-192l-43.2-43.2zM160.32 349.76v-54.4l71.68-71.68h120.32v64h-96l-79.36 79.36-16.64-17.28z m446.72 482.56H416L288 704l127.04-127.68h192l128 128-128 128zM192 544v-64l64-63.68L320 480v64l-64 64.32L192 544z m640.32 0l-64 64.32-64-64.32v-64l64-63.68 64 63.68v64z m31.68-194.24l-16.64 17.28L768 287.68h-96v-64h120.32L864 295.36v54.4z"></path></svg>