<svg xmlns="http://www.w3.org/2000/svg" viewBox="0 0 1024 1024"><path d="M751.68 432.96L832.64 352l-160-256-96-32v291.84c-20.16-2.56-41.6-4.16-64.32-4.16s-43.2 2.24-63.68 5.76V123.52 64l-96 32-160 256 86.72 86.72c-34.24 32.32-54.72 69.76-54.72 104.64 0 288.32-128 160.32-128 160.32 0 111.04 95.68 159.68 212.8 114.56 177.92-68.48 267.52-236.16 299.2-306.56 102.72 141.44 128 181.44 127.68 352 118.72-120.64 134.4-319.68 16-431.04zM384 375.04c-8 2.88-16 6.4-23.68 9.92L313.6 338.24l70.08-112.32v149.12z m284.8 5.12c-8.96-3.84-18.56-7.04-28.16-10.24v-144l70.08 112.32-41.92 41.92z"></path><path d="M386.56 853.12c46.08 57.28 98.24 93.44 125.76 106.88 33.92-16.64 106.88-68.8 158.08-154.24-4.16-74.56-18.24-115.2-54.72-171.84-48 76.8-121.92 163.2-228.8 219.52z"></path></svg>