<svg xmlns="http://www.w3.org/2000/svg" viewBox="0 0 1024 1024"><path d="M608.32 256.32l-96-192-96 192-32 320h256l-32-320z"></path><path d="M352 640c-19.2 0-40.32-5.12-56.32-16a96.992 96.992 0 0 1-32.96-124.48l25.6-51.52-32-64c-60.48 55.04-128 128-128 224 0 85.12 103.68 160 192 160h64l64-128h-96zM768 384.32l-31.68 64 25.6 51.52c22.08 43.84 7.68 97.28-32.96 124.48-16 10.56-37.12 16-56.32 16h-96l64 128h64c88.32 0 192-74.88 192-160 0-96-67.84-168.96-128.32-224zM423.68 832.64l24.64 127.68h128l24.32-127.68-88.32-192-88.64 192z"></path></svg>