<svg xmlns="http://www.w3.org/2000/svg" viewBox="0 0 1024 1024"><path d="M693.44 210.88c-39.68-24-73.92-56.32-103.68-92.16L544 63.68v226.56c105.92 15.04 187.84 104 192 213.12 4.16 113.6-81.92 213.12-192 229.76v-0.64c0-49.28 21.76-95.04 56.96-129.28 24-23.04 39.04-55.36 39.04-91.52 0-80.64-74.56-144-158.4-124.48-46.08 10.56-83.52 48-94.08 94.08-10.88 48 4.8 92.48 35.52 121.92 35.52 34.24 56.96 80 56.96 129.28v0.64c-108.48-15.68-192-108.48-192-221.44s83.52-205.76 192-221.44V64l-45.76 55.04c-29.76 35.52-63.68 67.84-103.68 91.84C228.48 272.64 160 384.32 160 512c0 138.88 80.96 259.2 198.08 316.16 61.44 30.08 112.96 77.12 153.92 131.84 40.96-54.72 92.48-101.76 153.92-131.84C783.04 770.88 864 650.88 864 512c0-127.68-68.48-239.36-170.56-301.12z"></path></svg>