<svg xmlns="http://www.w3.org/2000/svg" viewBox="0 0 1024 1024"><path d="M575.68 640l0.64 32L704 608v-96.32L640 544l-64.32 96z"></path><path d="M672 352l-160-288-160 288-255.68-96S160 447.36 160 704c206.72 71.04 352.64 256 352.64 256s144.64-184.96 351.36-256c0-256.64 64.96-448 64.96-448L672 352z m-224 319.68L289.28 608v-128.32l96 64.32L448 640v31.68z m-25.28-248.96l13.44-24 76.16-136.96 76.16 136.96 3.84 6.72-80 106.56-89.28-89.28z m346.56 216c-109.76 50.24-198.72 123.84-256.96 180.48l-0.64-0.64v-200.32l108.8-144.64 85.12-31.68 88.32-32.96c-11.2 64.32-21.12 142.4-24.64 229.76z"></path></svg>