<svg xmlns="http://www.w3.org/2000/svg" viewBox="0 0 1024 1024"><path d="M512.32 639.68c-53.12 0-96 11.52-96 64s42.88 64 96 64 96-11.52 96-64-42.88-64-96-64z"></path><path d="M850.88 272.64a207.456 207.456 0 0 0-87.68-127.36l-122.88-81.92-32 160h-192l-32-160-122.88 81.92a208.736 208.736 0 0 0-87.68 127.36C145.92 397.12 96 625.92 96 671.68 96 735.36 416 960 512.32 960s416.32-224.64 416.32-288.32c0-45.76-49.6-274.56-77.76-399.04z m-242.24 127.68c0-26.56 21.44-48 48-48s48 21.44 48 48v96c0 26.56-21.44 48-48 48s-48-21.44-48-48v-96z m-288.32 0c0-26.56 21.44-48 48-48s48 21.44 48 48v96c0 26.56-21.44 48-48 48s-48-21.44-48-48v-96zM512.64 864H512c-40.96-1.28-272.96-103.68-305.92-233.92 50.24 22.4 94.08 41.6 147.52 54.4 5.76-42.88 34.88-108.8 158.72-108.8s152.96 65.6 158.72 108.8c53.44-12.8 96.96-32 147.52-54.4-32.96 130.24-264.96 232.64-305.92 233.92z"></path></svg>