<svg xmlns="http://www.w3.org/2000/svg" viewBox="0 0 1024 1024"><path d="M768 407.04a266.496 266.496 0 0 0-86.4-58.56c13.76-22.08 22.08-48 22.08-75.84 0-63.68-41.92-117.12-99.2-136.32a95.872 95.872 0 0 0-188.8 23.68 95.872 95.872 0 0 0 163.2 68.48c16.96 7.36 28.8 24.32 28.8 44.16 0 26.56-21.44 48-48 48h-28.8c-6.4 0-12.48-0.64-19.2-0.64-124.48 0-197.12 27.84-256 87.04-104.32 104.96-128 256.96-128 337.92 0 112.96 246.72 215.04 384 215.04s384-102.08 384-215.04c0-80.96-23.68-232.96-128-337.92zM288 512c116.48 0 128 149.44 128 224-248 0-213.76-224-128-224z m224 320c-56.96 0-96 32-96 32s9.92-96 96-96 96 96 96 96-39.04-32-96-32z m96-96c0-74.56 11.52-224 128-224 86.08 0 120 224-128 224z"></path></svg>