<svg xmlns="http://www.w3.org/2000/svg" viewBox="0 0 1024 1024"><path d="M800 128l-266.24 494.08-36.16-17.92a40 40 0 0 0-53.76 17.92c-9.92 19.84-1.92 43.84 17.92 53.76l33.92 16.96-103.68 192.64 119.68 74.88s90.56-2.24 64-96l71.68-95.36 70.4 35.2c5.76 2.88 11.84 4.16 17.92 4.16a40 40 0 0 0 17.92-75.84l-39.04-19.52c108.8-65.6 367.68-267.84 85.12-584.64z"></path><path d="M511.68 528.64l135.04-250.56-0.96-0.96C589.76 224.64 512.96 192 427.84 192c-71.68 0-137.6 23.36-190.4 62.4 91.2 1.6 172.48 40.64 228.16 101.44-28.16-5.44-57.28-8.64-87.04-8.64-125.12 0-237.12 51.52-314.56 133.44 55.68-25.6 118.08-40.32 184-40.32 96.96 0 186.24 31.36 257.6 83.52l5.76 4.8z"></path></svg>