<svg xmlns="http://www.w3.org/2000/svg" viewBox="0 0 1024 1024"><path d="M608 64c48 103.68 192 275.52 192 448 0 186.56-128.96 288-288 288s-288-101.44-288-288c0-172.48 144-344.32 192-448C273.28 187.52 96 382.4 96 544c0 212.16 186.24 384 416 384s416-171.84 416-384c0-161.6-177.28-356.48-320-480z"></path><path d="M512 128s-192 224-192 384c0 105.92 86.08 192 192 192s192-86.08 192-192c0-160-192-384-192-384z m0 416c-50.88 0-98.88-42.24-96-96 3.52-66.56 68.16-150.4 96-192 27.84 41.6 92.48 125.44 96 192 2.88 53.76-45.12 96-96 96z"></path></svg>