<svg xmlns="http://www.w3.org/2000/svg" viewBox="0 0 1024 1024"><path d="M864 640.64s-68.48-320-352-320c-229.12 0-384 224-384 224S104.32 358.4 320.64 160c-3.2 3.2-5.12 80.96 32 96 0 0 86.72-192 319.36-192-79.04 160-13.12 267.52 126.72 192.96 18.24 159.04 97.6 142.4 161.6 415.04-72.32 70.72-192 96-192 96l-64.64-127.36h160z"></path><path d="M512 448.64c-229.12 0-384 192-384 192s154.88 192 384 192 384-192 384-192-154.88-192-384-192z m0.64 319.36c-70.72 0-128-57.28-128-128s57.28-128 128-128 128 57.28 128 128-57.28 128-128 128z"></path><path d="M416.64 800l96 160 96-160"></path><path d="M576.64 768l160 160 32-160v-32l-192 32zM448.32 768l-160 160-32-192"></path><path d="M512.64 592m-80 0a80 80 0 1 0 160 0 80 80 0 1 0-160 0Z"></path></svg>