<svg xmlns="http://www.w3.org/2000/svg" viewBox="0 0 1024 1024"><path d="M512 256c13.76 0 27.2 1.28 40.32 3.52l165.12-32.96c-40-28.8-86.4-49.6-136.32-59.52l-68.8-102.72-68.8 102.72c-139.2 27.52-248.96 137.28-276.48 276.48l-102.72 68.8 102.72 68.8c9.92 50.24 30.72 96.64 59.84 136.64l32.96-165.12c-2.24-13.12-3.52-26.56-3.52-40.32 0-141.12 114.88-256 256-256zM857.28 443.52c-9.92-50.24-30.72-96.64-59.52-136.64l-32.96 165.12c1.92 13.12 3.52 26.56 3.52 40 0 141.12-114.88 256-256 256-13.76 0-27.2-1.28-40.32-3.52l-165.12 32.96c40 28.8 86.4 49.6 136.64 59.52l68.8 102.72 68.48-102.72c139.52-27.52 249.28-137.28 276.8-276.8l102.72-68.48-102.72-68.48z"></path><path d="M586.88 437.12L672 608l64-320-320 64 170.88 85.12zM437.44 586.56L352 416 288 736l320-64-170.56-85.44z"></path></svg>