<svg xmlns="http://www.w3.org/2000/svg" viewBox="0 0 1024 1024"><path d="M896 448h-38.08c-26.24-143.04-138.88-255.68-281.92-281.92V128c0-35.2-28.8-64-64-64s-64 28.8-64 64v38.08C304.96 192.32 192.32 304.96 166.08 448H128c-35.2 0-64 28.8-64 64s28.8 64 64 64h38.08c26.24 143.04 138.88 255.68 281.92 281.92V896c0 35.2 28.8 64 64 64s64-28.8 64-64v-38.08c143.04-26.24 255.68-138.88 281.92-281.92H896c35.2 0 64-28.8 64-64s-28.8-64-64-64z m-320 311.68V672l-64-96-64 96v87.68A257.12 257.12 0 0 1 264.32 576H352l96-64-96-64H264.32c23.36-89.6 93.76-160.32 183.68-183.68V352l64 96 64-96V264.32c89.6 23.36 160.32 93.76 183.68 183.68H672l-96 64 96 64h87.68A257.12 257.12 0 0 1 576 759.68z"></path></svg>