<svg xmlns="http://www.w3.org/2000/svg" viewBox="0 0 1024 1024"><path d="M191.36 384l-64-64s-64 96-64 224 53.12 288 352 384l-33.92-82.88S127.68 647.68 191.68 384zM832 384l64-64s64 96 64 224-53.12 288-352 384l33.92-82.88s253.76-197.44 189.76-461.12z"></path><path d="M704 418.88c0.32 46.08 0.64 100.16 0 105.28-7.04 41.6-86.08 76.48-192 76.48s-184.32-34.88-192-76.48c-0.64-3.84-0.64-58.56-0.64-105.28-92.8 37.44-153.92 100.8-153.92 172.8 0 114.88 155.2 208 346.88 208s346.88-93.12 346.88-208c0-72.32-61.44-135.68-154.56-173.12z"></path><path d="M511.36 192m-128 0a128 128 0 1 0 256 0 128 128 0 1 0-256 0Z"></path><path d="M548.48 253.44h-73.92l-91.2 128 12.48 34.56 40.32 112.64c19.84 4.48 44.8 8 75.52 8s54.4-3.2 73.92-7.36L626.56 416l12.48-34.56-90.88-128z"></path></svg>