<svg xmlns="http://www.w3.org/2000/svg" viewBox="0 0 1024 1024"><path d="M704.32 512c0-35.52-24-151.36-131.84-183.36l-18.88-112.96c32-12.8 54.4-40 54.4-72 0-44.16-42.88-80-96-80s-96 35.84-96 80c0 31.68 22.4 59.2 54.72 72l-18.88 112.64c-108.16 32-131.84 148.16-131.84 183.36 0 0 64.32-64 192-64s192 64 192 64z"></path><path d="M257.6 320h94.72V192H160L64 543.68l256.32 256.64v-181.12L207.04 505.6 257.6 320zM543.68 736.32l-31.68 32-31.68-32V576l-96-64v320L512 960l127.68-128V512l-96 64v160.32zM832 192h-160.32v128h70.72l69.44 190.72L704 618.88V800l256-256.32L832 192z"></path></svg>