<svg xmlns="http://www.w3.org/2000/svg" viewBox="0 0 1024 1024"><path d="M342.72 272.96l41.6-124.8C216.96 201.92 96 358.72 96 544c0 30.08 3.2 59.52 9.28 87.68l87.04-98.24a319.136 319.136 0 0 1 150.4-260.48zM831.36 533.12l87.04 98.24c6.08-28.16 9.28-57.28 9.28-87.36 0-185.28-121.28-342.08-288.64-395.84l41.6 124.8a318.688 318.688 0 0 1 150.4 260.48zM512 864c-54.4 0-105.6-13.76-150.72-37.76l-128 26.24C307.2 919.04 404.48 960 511.68 960s204.8-40.96 278.72-107.84l-127.68-26.24A316.704 316.704 0 0 1 511.68 864zM512 416c35.84 0 68.16 14.72 91.2 38.4l59.52-34.24L544 64h-64l-118.72 356.16 59.52 34.24A127.36 127.36 0 0 1 512 416zM634.88 510.08c2.88 10.88 5.12 22.08 5.12 33.92 0 59.52-40.96 109.12-96 123.52v68.8l368 75.2 32-55.36-248.96-280.96-59.84 34.56zM384 544c0-11.84 2.24-23.04 5.12-33.92l-59.84-34.56-248.96 280.96 32 55.36L480 736.64v-69.12c-55.04-14.4-96-64-96-123.52z"></path></svg>