<svg xmlns="http://www.w3.org/2000/svg" viewBox="0 0 1024 1024"><path d="M775.36 266.88L635.2 128h-246.72L248 267.2c72.64 56.32 164.16 89.92 263.68 89.92s190.72-33.6 263.68-90.24zM214.08 742.72L481.28 960v-240.64l-101.76-143.68-165.44 167.04zM197.44 318.4l-116.8 116.16 89.28 265.28 173.76-175.04-146.24-206.4zM512 418.88c-70.08 0-136.96-15.04-197.76-41.6L512 656.32l197.76-279.04c-60.48 26.56-127.36 41.6-197.76 41.6zM826.88 318.4l-145.92 206.4 173.12 175.04 89.28-265.28-116.48-116.16zM543.04 719.36V960l267.52-217.28-165.76-167.04-101.76 143.68z"></path></svg>