<svg xmlns="http://www.w3.org/2000/svg" viewBox="0 0 1024 1024"><path d="M512 575.68m-64 0a64 64 0 1 0 128 0 64 64 0 1 0-128 0Z"></path><path d="M736 576s88.32-101.44 0-320c0 0-28.8 88.64-96 128L512 64l-128 320c-67.2-39.68-96-128-96-128-88.64 218.24 0 320 0 320-144.96 0-224-128-224-128 0 352 352 512 352 512 0-136.96 96-192 96-192s96 55.04 96 192c0 0 352-160 352-512 0 0-78.72 128-224 128z m-224 127.68c-70.72 0-128-57.28-128-128s57.28-128 128-128 128 57.28 128 128-57.28 128-128 128z"></path></svg>